<?xml version="1.0" encoding="UTF-8" standalone="no"?>
<svg
   id="svg2"
   version="1.0"
   width="1010"
   height="1010.0002"
   xmlns="http://www.w3.org/2000/svg"
   xmlns:svg="http://www.w3.org/2000/svg"
   xmlns:rdf="http://www.w3.org/1999/02/22-rdf-syntax-ns#"
   xmlns:cc="http://creativecommons.org/ns#"
   xmlns:dc="http://purl.org/dc/elements/1.1/">
  <defs
     id="defs4" />
  <metadata
     id="metadata7">
    <rdf:RDF>
      <cc:Work
         rdf:about="">
        <dc:format>image/svg+xml</dc:format>
        <dc:type
           rdf:resource="http://purl.org/dc/dcmitype/StillImage" />
        <dc:title />
      </cc:Work>
    </rdf:RDF>
  </metadata>
  <g
     id="layer1"
     transform="translate(1515.329,3240.875)">
    <path
       id="path3940"
       d="m -801.1513,-2230.8749 295.8223,-295.8221 -10e-5,-418.3556 -295.822,-295.8224 -418.3557,3e-4 -295.8222,295.8221 2e-4,418.3558 295.822,295.822 z"
       style="fill:#000000;fill-opacity:1;stroke:none" />
    <path
       id="path3942"
       d="m -803.2223,-2235.875 292.8933,-292.8932 -10e-5,-414.2135 -292.8931,-292.8935 -414.2135,3e-4 -292.8933,292.8932 2e-4,414.2136 292.8931,292.8932 z"
       style="fill:#ffffff;fill-opacity:1;stroke:none" />
    <path
       style="fill:#d8261c;fill-opacity:1;stroke:none"
       d="m -1207.0806,-2260.875 -278.2484,-278.2483 10e-5,-393.5032 278.2482,-278.2486 393.50294,4e-4 278.24876,278.2481 -2.9e-4,393.5033 -278.24837,278.2484 z"
       id="path3944" />
    <path
       d="m -640.91616,-2809.0169 c 0,30.3744 -15.19929,47.9129 -43.24646,47.9129 h -49.10072 v -94.6742 h 49.10072 c 25.72,0 43.24646,18.702 43.24646,46.7613 m 46.73716,0 c 0,-56.1185 -35.05288,-93.5228 -87.65645,-93.5228 h -99.34078 v 333.1358 h 47.91289 v -146.1144 h 51.42789 c 56.11855,0 87.65645,-32.7256 87.65645,-93.4986 m -285.21074,72.4694 c 0,38.5678 -2.32717,58.4456 -10.53286,85.3171 -8.18142,28.0472 -21.02929,40.9193 -40.89504,40.9193 -21.05346,0 -33.91351,-12.8721 -42.07072,-40.9193 -7.02995,-26.8715 -10.53283,-47.9249 -10.53283,-84.1657 0,-37.4042 2.32712,-59.6093 10.53283,-85.3293 8.15721,-28.0351 21.01726,-40.9071 42.07072,-40.9071 19.86575,0 32.71362,12.872 40.89504,42.0828 7.02999,24.5443 10.53286,45.5857 10.53286,83.0022 m 45.5857,0 c 0,-50.2765 -4.69068,-81.8265 -18.70213,-114.5644 -16.36287,-40.895 -39.73147,-57.27 -78.31147,-57.27 -38.56784,0 -61.96072,16.375 -79.48706,56.1186 -14.0115,31.5379 -18.7144,65.4393 -18.7144,115.7158 0,51.4278 4.7029,82.9657 18.7144,115.7035 16.36278,39.7436 39.75556,57.4761 79.48706,57.4761 37.4043,0 61.9486,-17.7325 78.31147,-57.4761 14.01145,-31.55 18.70213,-64.2757 18.70213,-115.7035 m -220.94716,-121.57 v -44.4222 h -169.4828 v 44.4222 h 60.785 v 288.7136 h 47.9129 v -288.7136 z m -185.882,197.5421 c 0,-47.925 -28.035,-84.1657 -92.323,-121.5579 -24.5442,-14.0357 -31.55,-23.3928 -31.55,-39.7556 0,-22.205 17.5265,-38.568 39.7315,-38.568 21.0293,0 37.4043,15.1993 38.5679,38.568 h 45.5736 c -1.1636,-50.2644 -37.3801,-86.493 -84.1415,-86.493 -47.925,0 -85.3293,38.568 -85.3293,86.493 0,29.235 14.0114,54.9427 40.9072,73.645 67.8028,45.5735 49.1007,32.7256 56.1185,39.7435 19.8536,15.1872 26.8715,29.1987 26.8715,47.925 0,26.8836 -21.0415,50.2643 -46.7494,50.2643 -32.7256,0 -46.7613,-29.235 -46.7613,-57.2942 h -46.7615 c 0,54.9428 35.0772,104.2374 93.5228,104.2374 51.4279,0 92.323,-43.4403 92.323,-97.2075"
       style="fill:#ffffff;fill-opacity:1;fill-rule:evenodd;stroke:none"
       id="path3338" />
  </g>
</svg>
